PathFileType	4	(X/Y/Z)
DataRate	CameraRate	NumFrames	NumMarkers	Units	OrigDataRate	OrigDataStartFrame	OrigNumFrames
120	120	4	142	mm	120	139	553	
Frame#	Time	 STRN			 T1			 T8			 T10			 T12			 C7			 CLAV			 LANK			 RANK			 LANI			 RANI			 LASI			 RASI			 LPSI			 RPSI			 LSHO			 RSHO			 LTOE			 RTOE			 RHEE			 LHEE			 LKNE			 RKNE			 LKNI			 RKNI			 RIWR			 LIWR			 RELB			 LELB			 RELBIN			 LELBIN			 LOWR			 ROWR			 RCLAV			 LCLAV			 RFHD			 LBHD			 LFHD			 RBHD			 LMT1			 LMT5			 RMT1			 RMT5			 Tracking_L5			 Tracking_L4			 Tracking_L3			 Tracking_L2			 Tracking_L1			 Tracking_T11			 Tracking_T9			 Tracking_T7			 Tracking_T6			 Tracking_T5			 Tracking_T4			 Tracking_T3			 Tracking_T2			 rthumb			 rindex			 rmiddle			 rring			 rpinky			 lthumb			 lindex			 lmiddle			 lring			 lpinky			 ROOT			 Spine1			 Spine2			 Spine3			 LHIPJ			 RHIPJ			 LKJC			 RKJC			 LAJC			 RAJC			 LFOOT			 RFOOT			 NECK			 LCOL			 RCOL			 HEAD			 LSHOULDER			 RSHOULDER			 LELC			 RELC			 LWRIST			 RWRIST			 left_index1			 left_index2			 left_index3			 left_middle1			 left_middle2			 left_middle3			 left_pinky1			 left_pinky2			 left_pinky3			 left_ring1			 left_ring2			 left_ring3			 left_thumb1			 left_thumb2			 left_thumb3			 right_index1			 right_index2			 right_index3			 right_middle1			 right_middle2			 right_middle3			 right_pinky1			 right_pinky2			 right_pinky3			 right_ring1			 right_ring2			 right_ring3			 right_thumb1			 right_thumb2			 right_thumb3			 MASI			 MPSI			 MHIPJ			 CENTER			 Virtual_LWRIST			 Virtual_RWRIST			 Virtual_LAJC			 Virtual_RAJC			 Virtual_LKJC			 Virtual_RKJC			 Virtual_LELC			 Virtual_RELC			 Virtual_Ground_RAJC			 Virtual_Ground_LAJC			 Virtual_Ground_RFOOT			 Virtual_Ground_LFOOT			 Virtual_Ground_RTOE			 Virtual_Ground_LTOE			 Virtual_Ground_RMT1			 Virtual_Ground_LMT1			 Virtual_Ground_RMT5			 Virtual_Ground_LMT5			 Virtual_Ground_RHEE			 Virtual_Ground_LHEE		
		X1	Y1	Z1	X2	Y2	Z2	X3	Y3	Z3	X4	Y4	Z4	X5	Y5	Z5	X6	Y6	Z6	X7	Y7	Z7	X8	Y8	Z8	X9	Y9	Z9	X10	Y10	Z10	X11	Y11	Z11	X12	Y12	Z12	X13	Y13	Z13	X14	Y14	Z14	X15	Y15	Z15	X16	Y16	Z16	X17	Y17	Z17	X18	Y18	Z18	X19	Y19	Z19	X20	Y20	Z20	X21	Y21	Z21	X22	Y22	Z22	X23	Y23	Z23	X24	Y24	Z24	X25	Y25	Z25	X26	Y26	Z26	X27	Y27	Z27	X28	Y28	Z28	X29	Y29	Z29	X30	Y30	Z30	X31	Y31	Z31	X32	Y32	Z32	X33	Y33	Z33	X34	Y34	Z34	X35	Y35	Z35	X36	Y36	Z36	X37	Y37	Z37	X38	Y38	Z38	X39	Y39	Z39	X40	Y40	Z40	X41	Y41	Z41	X42	Y42	Z42	X43	Y43	Z43	X44	Y44	Z44	X45	Y45	Z45	X46	Y46	Z46	X47	Y47	Z47	X48	Y48	Z48	X49	Y49	Z49	X50	Y50	Z50	X51	Y51	Z51	X52	Y52	Z52	X53	Y53	Z53	X54	Y54	Z54	X55	Y55	Z55	X56	Y56	Z56	X57	Y57	Z57	X58	Y58	Z58	X59	Y59	Z59	X60	Y60	Z60	X61	Y61	Z61	X62	Y62	Z62	X63	Y63	Z63	X64	Y64	Z64	X65	Y65	Z65	X66	Y66	Z66	X67	Y67	Z67	X68	Y68	Z68	X69	Y69	Z69	X70	Y70	Z70	X71	Y71	Z71	X72	Y72	Z72	X73	Y73	Z73	X74	Y74	Z74	X75	Y75	Z75	X76	Y76	Z76	X77	Y77	Z77	X78	Y78	Z78	X79	Y79	Z79	X80	Y80	Z80	X81	Y81	Z81	X82	Y82	Z82	X83	Y83	Z83	X84	Y84	Z84	X85	Y85	Z85	X86	Y86	Z86	X87	Y87	Z87	X88	Y88	Z88	X89	Y89	Z89	X90	Y90	Z90	X91	Y91	Z91	X92	Y92	Z92	X93	Y93	Z93	X94	Y94	Z94	X95	Y95	Z95	X96	Y96	Z96	X97	Y97	Z97	X98	Y98	Z98	X99	Y99	Z99	X100	Y100	Z100	X101	Y101	Z101	X102	Y102	Z102	X103	Y103	Z103	X104	Y104	Z104	X105	Y105	Z105	X106	Y106	Z106	X107	Y107	Z107	X108	Y108	Z108	X109	Y109	Z109	X110	Y110	Z110	X111	Y111	Z111	X112	Y112	Z112	X113	Y113	Z113	X114	Y114	Z114	X115	Y115	Z115	X116	Y116	Z116	X117	Y117	Z117	X118	Y118	Z118	X119	Y119	Z119	X120	Y120	Z120	X121	Y121	Z121	X122	Y122	Z122	X123	Y123	Z123	X124	Y124	Z124	X125	Y125	Z125	X126	Y126	Z126	X127	Y127	Z127	X128	Y128	Z128	X129	Y129	Z129	X130	Y130	Z130	X131	Y131	Z131	X132	Y132	Z132	X133	Y133	Z133	X134	Y134	Z134	X135	Y135	Z135	X136	Y136	Z136	X137	Y137	Z137	X138	Y138	Z138	X139	Y139	Z139	X140	Y140	Z140	X141	Y141	Z141	X142	Y142	Z142

139	1.1500	255.388469	-383.749545	1153.943777	233.688250	-214.353561	1451.880932	177.110285	-126.630560	1263.080597	172.094300	-127.145737	1209.745884	170.887575	-133.870125	1154.757261	243.377030	-230.665967	1465.836406	268.409580	-344.207704	1358.838797	350.811094	-140.329540	149.593413	17.909465	-211.389393	71.730018	297.605395	-169.197679	175.940454	81.660964	-208.677918	92.746675	333.806962	-294.330955	912.975192	74.901499	-352.690160	908.676445	218.700483	-92.563763	974.791646	101.872005	-122.678325	983.672678	381.565094	-234.716058	1391.988993	127.807066	-334.945917	1427.653909	351.729453	-265.465319	9.231030	64.460337	-380.249321	-2.309920	61.124057	-142.371580	17.984388	280.462056	-79.531491	140.302598	454.464287	-350.736886	514.056444	2.713172	-352.777213	467.160612	353.793412	-388.607740	491.942465	115.476780	-344.644606	455.590785	156.466216	-488.976300	1037.634015	394.983917	-360.235095	1005.303025	-73.082119	-399.050444	1111.855745	479.849011	-118.698359	1045.001984	-37.838668	-321.989417	1078.933477	391.852856	-95.804095	1026.081800	390.040904	-344.423652	947.175682	142.133653	-476.288259	978.079557	197.460547	-354.365706	1384.220719	335.188627	-301.744103	1364.021420	299.022973	-428.368926	1617.140651	370.183825	-282.229841	1659.535885	394.760698	-396.940589	1597.274184	274.137408	-310.905546	1678.387284	342.991918	-232.075274	54.182827	388.505131	-176.132172	43.839753	56.638807	-331.560463	21.815835	-19.533025	-310.406417	5.336283	163.966864	-123.241238	1019.224048	166.384056	-131.412864	1045.381665	169.373363	-137.558281	1075.549603	170.127645	-139.632761	1102.005720	170.976773	-137.506261	1127.469659	171.234205	-130.294934	1181.755185	174.221739	-126.044571	1237.422347	180.183411	-129.241288	1286.094069	188.509211	-138.699904	1326.496959	196.450531	-150.659084	1358.356833	208.918229	-171.961308	1398.927212	217.407122	-185.924724	1420.458317	225.260064	-199.426621	1436.698794	299.767196	-488.877743	1034.916759	322.782636	-508.968413	994.465530	319.505036	-501.008451	967.329621	302.785933	-488.309979	957.116961	280.732989	-478.555501	938.901842	300.146282	-467.812717	1010.925174	291.113436	-490.765154	977.843642	283.534229	-487.558484	954.058647	286.579728	-465.626419	942.427933	295.353949	-445.203066	923.201501	191.047549	-247.558504	913.781166	187.828735	-198.575318	1036.844730	211.712077	-245.007887	1160.573602	220.663220	-262.759656	1209.993005	245.244458	-222.031981	829.193532	125.422299	-257.210046	824.603081	409.311324	-360.022455	512.442827	45.934767	-345.474243	461.987555	314.637512	-158.982962	149.488986	65.114290	-211.037844	66.664517	365.269899	-196.311831	23.654280	17.530976	-330.561221	-4.634203	245.435745	-281.661153	1419.098258	307.600498	-245.444596	1314.949751	161.601126	-293.390304	1335.719705	289.131880	-333.883792	1484.877229	424.536914	-190.153822	1276.268601	53.161070	-355.344176	1334.945083	435.199142	-102.276623	1034.280896	-59.442222	-356.315345	1095.617771	385.213137	-357.162505	969.699264	159.668997	-480.948478	998.973370	355.729610	-460.976720	978.894591	338.171452	-489.078343	977.831244	314.942926	-490.891188	977.308810	355.717778	-465.784371	953.832150	334.444731	-488.852322	947.596192	309.767187	-489.402145	948.211670	351.059586	-433.263958	916.142046	334.161907	-443.692833	911.382616	314.638436	-445.016801	914.299250	354.376376	-449.991733	931.446254	333.131999	-470.573813	929.804683	308.867604	-470.606655	933.713675	356.349200	-398.140132	994.779408	336.378366	-419.963628	1006.600499	326.228857	-444.924802	1010.960102	254.130661	-533.201456	1004.773498	286.694795	-541.143179	999.308825	304.227591	-526.038766	995.272279	255.110353	-538.082063	977.964163	285.694391	-539.955974	968.161702	303.184509	-522.862136	965.919793	232.812762	-512.284517	940.257490	251.239777	-506.981015	933.318079	265.712410	-493.636370	934.206724	243.087158	-526.568413	955.060005	272.164106	-526.392281	949.314892	289.271623	-508.554935	950.036824	209.366605	-487.384349	1023.441672	240.543038	-485.447824	1032.074094	267.156065	-493.369371	1034.188509	204.354230	-323.510557	910.825819	160.286244	-107.621044	979.232162	185.333379	-239.621013	826.898307	182.320237	-215.565801	945.028991	392.512411	-352.329373	976.239353	149.299935	-482.632279	1007.856786	324.208245	-154.763609	162.766933	49.785214	-210.033655	82.238346	404.128850	-369.672313	502.999455	59.094976	-348.710909	461.375698	435.850933	-107.251227	1035.541892	-55.460393	-360.519931	1095.394611	49.785214	-739.163160	82.238346	324.208245	-739.163160	162.766933	17.530976	-739.163160	-4.634203	365.269899	-739.163160	23.654280	64.460337	-739.163160	-2.309920	351.729453	-739.163160	9.231030	56.638807	-739.163160	21.815835	342.991918	-739.163160	54.182827	-19.533025	-739.163160	5.336283	388.505131	-739.163160	43.839753	61.124057	-739.163160	17.984388	280.462056	-739.163160	140.302598
140	1.1583	254.647613	-383.958519	1146.952629	229.913607	-215.557337	1445.308208	174.481973	-127.443060	1256.398678	169.798240	-127.831951	1203.185439	168.825313	-134.325340	1148.277402	239.510506	-231.885597	1459.333897	265.873700	-345.049918	1352.225900	347.199500	-142.942905	151.582643	17.023170	-210.268587	68.791382	294.305265	-172.451854	177.581057	80.675960	-207.053185	89.575164	332.911700	-293.969512	907.840848	74.020296	-353.823155	903.601944	216.868490	-92.365034	968.163669	100.015290	-123.009793	977.241397	378.402084	-234.720618	1385.789752	124.353230	-336.455613	1419.356942	350.884795	-266.746223	10.564317	64.418279	-379.960209	-2.610872	59.250019	-141.487688	14.006008	276.236743	-82.609363	142.417595	455.655843	-357.654691	512.104690	1.021349	-356.580943	462.131888	355.121374	-395.996571	489.895999	113.757208	-347.705543	450.699419	154.105633	-488.756120	1024.931788	393.889278	-359.601319	1002.066135	-75.098611	-400.100172	1102.069139	476.770639	-117.225952	1039.247751	-40.126540	-322.800964	1069.542050	388.683051	-95.066853	1019.843221	389.113814	-344.678760	943.696320	139.319718	-475.621372	965.602934	194.594517	-355.612665	1376.898170	332.482278	-302.089244	1357.759953	295.496315	-429.371893	1611.097813	365.474343	-282.757014	1653.891325	391.128957	-397.266656	1591.663480	269.554764	-312.115431	1672.344923	341.132611	-233.867407	55.645037	385.984898	-177.251637	46.046007	56.502424	-330.869347	20.694962	-20.007199	-310.522944	4.402985	162.218168	-123.215668	1012.808084	164.637193	-131.390616	1039.026737	167.578384	-137.585565	1069.242358	168.263689	-139.781013	1095.642924	169.014126	-137.794107	1121.065736	169.062883	-130.869657	1175.236344	171.764955	-126.805007	1230.794787	177.387208	-130.083829	1279.369354	185.426280	-139.591232	1319.741845	193.160862	-151.633427	1351.610661	205.390394	-173.050642	1392.204642	213.755757	-187.053442	1413.770914	221.543297	-200.594261	1430.058002	297.403842	-488.665909	1021.316648	320.132941	-508.494139	980.396330	316.678435	-500.282586	953.370929	299.892932	-487.505317	943.439603	277.699023	-477.587372	925.414443	299.878567	-467.767864	1009.096861	291.283458	-491.461933	976.229608	283.703238	-488.713831	952.358484	286.607772	-466.949105	940.410018	295.283467	-446.696043	920.858264	189.844340	-248.021275	907.713830	186.478779	-198.413670	1030.523062	210.170835	-245.414838	1154.073834	218.915194	-263.334215	1203.469872	243.895054	-222.708806	822.968423	124.218360	-258.408844	818.619013	410.518199	-367.014915	510.393977	43.991052	-348.931223	456.723869	311.067551	-161.762267	151.094005	64.357869	-209.350079	63.247554	363.361269	-197.566062	25.495758	17.267043	-330.710441	-5.218754	242.252231	-282.675445	1412.699938	305.019706	-245.936781	1309.097171	159.071371	-294.530213	1328.686833	285.481989	-334.795117	1478.867531	421.286643	-189.470857	1270.096898	50.659053	-356.462419	1325.637937	432.066530	-101.217635	1028.251171	-61.561026	-357.328683	1086.130381	384.218663	-357.173771	966.337919	157.042205	-480.360597	986.335218	355.581671	-461.076319	977.081239	338.269174	-489.341646	976.395428	315.059602	-491.362691	975.800455	355.724305	-466.287494	952.099979	334.677517	-489.635438	946.144581	310.003042	-490.387797	946.660638	350.959063	-434.420675	913.868904	334.172785	-445.070118	909.204662	314.648360	-446.514994	912.056684	354.349345	-450.870186	929.455996	333.289236	-471.658319	928.054273	309.008539	-471.837103	931.856811	355.592638	-397.988617	991.950452	335.755646	-419.789791	1004.035234	325.800091	-444.763899	1008.753300	251.487494	-532.753527	991.035521	284.002990	-540.683925	985.272825	301.522344	-525.565267	981.231272	252.269030	-537.419796	964.181483	282.779723	-539.245784	954.144239	300.271422	-522.152126	951.913476	229.728103	-511.298120	926.844478	248.110324	-505.957663	919.815242	262.603194	-492.635131	920.706511	240.093559	-525.710642	941.457629	269.128561	-525.517642	935.504735	286.259830	-507.703900	936.246395	206.907749	-487.042606	1010.392427	238.147542	-485.206813	1018.815160	264.766634	-493.171841	1020.674229	203.465998	-323.896334	905.721396	158.441890	-107.687414	972.702533	184.056707	-240.558825	820.793718	180.953944	-215.791874	939.211965	391.501546	-352.140039	972.881228	146.712676	-482.188746	995.267361	320.752382	-157.697380	164.581850	48.849565	-208.660886	79.183273	405.388609	-376.825631	501.000345	57.389279	-352.143243	456.415653	432.726845	-106.146403	1029.545486	-57.612576	-361.450568	1085.805595	48.849565	-739.163160	79.183273	320.752382	-739.163160	164.581850	17.267043	-739.163160	-5.218754	363.361269	-739.163160	25.495758	64.418279	-739.163160	-2.610872	350.884795	-739.163160	10.564317	56.502424	-739.163160	20.694962	341.132611	-739.163160	55.645037	-20.007199	-739.163160	4.402985	385.984898	-739.163160	46.046007	59.250019	-739.163160	14.006008	276.236743	-739.163160	142.417595
141	1.1667	253.770381	-384.115756	1140.093088	226.295099	-216.945052	1438.928485	172.142282	-128.202364	1250.014544	167.803571	-128.420889	1196.879506	167.094275	-134.665802	1141.996980	235.767335	-233.275533	1452.980995	263.326198	-346.042335	1345.716953	343.955964	-145.700872	153.657243	16.566614	-209.346041	65.909728	291.316897	-175.695479	179.355130	80.140501	-205.809146	86.445019	332.371831	-293.489516	902.769148	73.448271	-354.653507	898.517191	215.470657	-92.091076	961.787581	98.567203	-123.187765	970.997632	375.441015	-235.074133	1379.611373	120.928936	-338.159680	1411.053300	349.900126	-268.161237	11.944460	64.383410	-379.868627	-2.955212	58.006551	-140.929610	10.119306	272.568852	-85.645370	144.684240	456.849575	-364.495069	510.304213	-0.494560	-360.200047	457.249850	356.368423	-403.154582	488.085598	112.213723	-350.845098	445.946932	151.910037	-488.479763	1011.965990	393.093854	-359.351963	998.795092	-76.932915	-401.045084	1091.943979	474.045932	-116.159223	1033.367038	-42.182330	-323.470622	1059.953094	385.896564	-94.637565	1013.505459	388.412088	-345.251173	940.227866	136.653155	-474.863559	952.873886	191.741765	-356.973708	1369.643569	329.824150	-302.696288	1351.603150	291.931272	-430.513322	1605.262160	360.796481	-283.418477	1648.400426	387.466937	-397.755057	1586.264610	264.990121	-313.409030	1666.437149	339.249521	-235.799849	57.187423	383.607239	-178.671658	48.354253	56.468870	-330.403775	19.563006	-20.317933	-310.672402	3.504740	160.903424	-123.092979	1006.574631	163.315743	-131.281123	1032.840848	166.184619	-137.528509	1063.099265	166.776091	-139.831766	1089.443088	167.408541	-137.971058	1114.831924	167.206645	-131.334051	1168.943644	169.604480	-127.487585	1224.448442	174.871564	-130.899355	1272.951245	182.607636	-140.511557	1313.298225	190.109968	-152.681306	1345.166326	202.074260	-174.275607	1385.761142	210.298851	-188.352108	1407.336712	218.005598	-201.947898	1423.641205	295.233309	-488.416791	1007.269740	317.619085	-507.948458	965.872288	313.969254	-499.493837	938.981175	297.113717	-486.646175	929.356635	274.779379	-476.582885	911.550701	299.855620	-468.071908	1007.176876	291.572750	-492.387503	974.505723	283.954799	-490.016162	950.613320	286.722243	-468.422115	938.404739	295.281589	-448.336810	918.560982	189.005435	-248.323113	901.745141	185.471609	-198.220626	1024.348497	208.747447	-245.744616	1147.778511	217.248052	-263.916671	1197.124720	242.948666	-223.159179	816.887081	123.406030	-259.325236	812.704504	411.717862	-373.875856	508.517563	42.265501	-352.298439	451.635242	307.815969	-164.587200	152.823552	64.006098	-208.030745	59.926733	361.518800	-199.025035	27.438151	17.061362	-330.954283	-5.796386	239.141136	-283.867508	1406.453609	302.544355	-246.618137	1303.421974	156.597912	-295.684993	1321.808696	281.870663	-335.909247	1473.006487	418.134630	-189.218611	1263.778329	48.311289	-357.650071	1316.111445	429.317623	-100.531437	1022.109747	-63.462652	-358.243793	1076.394439	383.472025	-357.511163	962.984085	154.567391	-479.674816	973.434627	355.603367	-461.470932	975.105822	338.508368	-489.874691	974.774778	315.316260	-492.081314	974.157751	355.842352	-467.026532	950.199664	334.987640	-490.615100	944.523275	310.318500	-491.549015	944.996297	350.921154	-435.729861	911.519945	334.227145	-446.571052	906.967640	314.707875	-448.125601	909.797192	354.401320	-451.935410	927.341044	333.503455	-472.901493	926.182330	309.216261	-473.213345	929.934502	355.099827	-398.185045	989.098430	335.402161	-419.967830	1001.441598	325.626552	-444.949597	1006.484032	248.974502	-532.229483	976.945698	281.429827	-540.158868	970.852077	298.936367	-525.033057	966.781795	249.526560	-536.689281	950.050950	279.950321	-538.478732	939.746737	297.446966	-521.391869	937.502563	226.713404	-510.249615	913.105130	245.044172	-504.879773	905.964792	259.562701	-491.584033	906.838298	237.179458	-524.788558	927.520037	266.164303	-524.588645	921.327710	283.326209	-506.804228	922.064364	204.621390	-486.609519	997.024357	235.932574	-484.880865	1005.201221	262.554914	-492.895812	1006.777525	202.910051	-324.071512	900.643170	157.018930	-107.639421	966.392606	183.177348	-241.242208	814.795792	179.964490	-215.855466	933.517888	390.752971	-352.301568	969.511479	144.281596	-481.671661	982.419938	317.636430	-160.698175	166.506186	48.353557	-207.577594	76.177374	406.608999	-383.824825	499.194905	55.859582	-355.522573	451.598391	429.971248	-105.398394	1023.436248	-59.557622	-362.257853	1075.948536	48.353557	-739.163160	76.177374	317.636430	-739.163160	166.506186	17.061362	-739.163160	-5.796386	361.518800	-739.163160	27.438151	64.383410	-739.163160	-2.955212	349.900126	-739.163160	11.944460	56.468870	-739.163160	19.563006	339.249521	-739.163160	57.187423	-20.317933	-739.163160	3.504740	383.607239	-739.163160	48.354253	58.006551	-739.163160	10.119306	272.568852	-739.163160	144.684240
142	1.1750	252.846479	-384.449035	1133.399367	222.809508	-218.451336	1432.728291	170.056209	-129.078880	1243.834019	166.102633	-129.104495	1190.801144	165.681869	-135.068059	1135.963917	232.153162	-234.761909	1446.803927	260.824502	-347.202420	1339.422822	340.530038	-148.468241	155.654624	16.660523	-208.561152	63.120440	288.156360	-178.939089	181.095675	80.184698	-204.915166	83.364680	331.989080	-293.074638	897.850752	72.912455	-355.154514	893.502295	214.500934	-91.814041	955.739260	97.500272	-123.175219	964.993954	372.632295	-235.672772	1373.600841	117.519796	-339.936644	1402.854800	348.666310	-269.761562	13.419880	64.268872	-380.047470	-3.130601	57.536688	-140.704393	6.287350	268.696904	-88.730678	146.805122	457.972795	-370.879114	508.534908	-1.707155	-363.624305	452.526003	357.537866	-409.879774	486.395776	110.989146	-354.047686	441.348284	149.873361	-488.198519	998.929918	392.346650	-359.248608	995.294213	-78.526154	-401.748568	1081.638217	471.447498	-115.326494	1027.532458	-43.861348	-323.935896	1050.252914	383.231699	-94.413891	1007.313848	387.760192	-345.912099	936.553955	134.145543	-474.159241	940.064728	188.914880	-358.458817	1362.584114	327.259898	-303.527057	1345.659256	288.288593	-431.786418	1599.651217	356.282294	-284.322202	1643.138528	383.767784	-398.518026	1581.080914	260.543853	-314.799577	1660.758734	337.148607	-237.860069	58.774427	381.010264	-180.248126	50.624207	56.530710	-330.192715	18.581582	-20.464454	-310.812980	2.794458	159.950271	-122.913890	1000.617981	162.337184	-131.144285	1026.923060	165.118471	-137.474835	1057.217598	165.610045	-139.905199	1083.499193	166.127205	-138.185650	1108.850837	165.661424	-131.877735	1162.889957	167.718455	-128.277808	1218.317866	172.592655	-131.838620	1266.728640	180.001870	-141.564354	1307.044506	187.254086	-153.865740	1338.910818	198.927373	-175.639108	1379.506230	206.998318	-189.787820	1401.090384	214.612469	-203.435048	1417.408824	293.221325	-488.206655	993.097484	315.231830	-507.514000	951.274335	311.386019	-498.874903	924.512208	294.473976	-485.976338	915.175438	272.006363	-475.798547	897.578061	299.852997	-468.485266	1004.922152	291.874081	-493.365467	972.443819	284.234256	-491.352409	948.559344	286.878675	-469.940752	936.120927	295.336276	-450.044215	916.008651	188.366815	-248.520389	895.965457	184.685007	-198.025957	1018.403649	207.489029	-246.189728	1141.673446	215.697020	-264.650464	1190.962076	242.281556	-223.515600	811.042309	122.819580	-259.956419	806.941092	412.853479	-380.295813	506.714344	40.886503	-355.561614	446.739167	304.390997	-167.442262	154.514447	64.171284	-207.036555	56.714252	359.453142	-200.649902	29.387070	16.919386	-331.304252	-6.200956	236.116186	-285.221994	1400.379896	300.185233	-247.513428	1297.928691	154.212773	-296.941221	1315.102100	278.313309	-337.127000	1467.377663	415.089190	-189.258739	1257.544398	46.060156	-358.811736	1306.547880	426.700145	-100.073241	1016.079426	-65.043315	-358.944118	1066.518784	382.771581	-357.940435	959.413767	152.247757	-479.022831	960.457563	355.651081	-461.936712	972.848415	338.770270	-490.470201	972.852707	315.597028	-492.859304	972.207129	355.996400	-467.820853	948.019087	335.333824	-491.639048	942.605019	310.671240	-492.752194	943.028808	350.941390	-437.078923	908.914089	334.340960	-448.104978	904.464722	314.826608	-449.768633	907.265961	354.501754	-453.046143	924.958050	333.764642	-474.182427	924.026310	309.470803	-474.627137	927.721560	354.637116	-398.476005	985.996187	335.071206	-420.240432	998.578906	325.469941	-445.225835	1003.929019	246.581391	-531.771421	962.859631	278.967947	-539.726436	956.442118	296.467543	-524.610400	952.306330	246.893555	-536.080480	935.936451	277.224064	-537.868202	925.360620	294.733256	-520.801425	923.061967	223.813727	-509.390593	899.337769	242.092565	-504.014611	892.070115	256.643325	-490.750968	892.893314	234.375730	-524.030030	913.580000	263.306558	-523.848951	907.139480	280.507982	-506.100833	907.828212	202.489585	-486.183286	983.575821	233.873188	-484.558821	991.492212	260.492802	-492.631882	992.794037	202.450767	-324.114576	895.676523	156.000603	-107.494630	960.366607	182.550568	-241.736010	808.991700	179.225685	-215.804603	928.021565	390.053421	-352.580354	965.924084	142.009452	-481.178880	969.497323	314.343199	-163.703665	168.375149	48.422610	-206.738159	73.242560	407.755330	-390.379444	497.465342	54.640995	-358.835995	446.937144	427.339599	-104.870193	1017.423153	-61.193751	-362.842232	1065.945566	48.422610	-739.163160	73.242560	314.343199	-739.163160	168.375149	16.919386	-739.163160	-6.200956	359.453142	-739.163160	29.387070	64.268872	-739.163160	-3.130601	348.666310	-739.163160	13.419880	56.530710	-739.163160	18.581582	337.148607	-739.163160	58.774427	-20.464454	-739.163160	2.794458	381.010264	-739.163160	50.624207	57.536688	-739.163160	6.287350	268.696904	-739.163160	146.805122
